ModelForces
version=1
nRows=4
nColumns=155
inDegrees=no

This file contains the forces exerted on a model during a simulation.

A force is a generalized force, meaning that it can be either a force (N) or a torque (Nm).

Units are S.I. units (second, meters, Newtons, ...)
Angles are in degrees.

endheader
time	glut_med1_r	glut_med2_r	glut_med3_r	glut_min1_r	glut_min2_r	glut_min3_r	semimem_r	semiten_r	bifemlh_r	bifemsh_r	sar_r	add_long_r	add_brev_r	add_mag1_r	add_mag2_r	add_mag3_r	tfl_r	pect_r	grac_r	glut_max1_r	glut_max2_r	glut_max3_r	iliacus_r	psoas_r	quad_fem_r	gem_r	peri_r	rect_fem_r	vas_med_r	vas_int_r	vas_lat_r	med_gas_r	lat_gas_r	soleus_r	tib_post_r	flex_dig_r	flex_hal_r	tib_ant_r	per_brev_r	per_long_r	per_tert_r	ext_dig_r	ext_hal_r	glut_med1_l	glut_med2_l	glut_med3_l	glut_min1_l	glut_min2_l	glut_min3_l	semimem_l	semiten_l	bifemlh_l	bifemsh_l	sar_l	add_long_l	add_brev_l	add_mag1_l	add_mag2_l	add_mag3_l	tfl_l	pect_l	grac_l	glut_max1_l	glut_max2_l	glut_max3_l	iliacus_l	psoas_l	quad_fem_l	gem_l	peri_l	rect_fem_l	vas_med_l	vas_int_l	vas_lat_l	med_gas_l	lat_gas_l	soleus_l	tib_post_l	flex_dig_l	flex_hal_l	tib_ant_l	per_brev_l	per_long_l	per_tert_l	ext_dig_l	ext_hal_l	ercspn_r	ercspn_l	intobl_r	intobl_l	extobl_r	extobl_l	femur_lat_meniscii_r.femur_lat_r.force.X	femur_lat_meniscii_r.femur_lat_r.force.Y	femur_lat_meniscii_r.femur_lat_r.force.Z	femur_lat_meniscii_r.femur_lat_r.torque.X	femur_lat_meniscii_r.femur_lat_r.torque.Y	femur_lat_meniscii_r.femur_lat_r.torque.Z	femur_lat_meniscii_r.meniscus_lat_r.force.X	femur_lat_meniscii_r.meniscus_lat_r.force.Y	femur_lat_meniscii_r.meniscus_lat_r.force.Z	femur_lat_meniscii_r.meniscus_lat_r.torque.X	femur_lat_meniscii_r.meniscus_lat_r.torque.Y	femur_lat_meniscii_r.meniscus_lat_r.torque.Z	femur_med_meniscii_r.femur_med_r.force.X	femur_med_meniscii_r.femur_med_r.force.Y	femur_med_meniscii_r.femur_med_r.force.Z	femur_med_meniscii_r.femur_med_r.torque.X	femur_med_meniscii_r.femur_med_r.torque.Y	femur_med_meniscii_r.femur_med_r.torque.Z	femur_med_meniscii_r.meniscus_med_r.force.X	femur_med_meniscii_r.meniscus_med_r.force.Y	femur_med_meniscii_r.meniscus_med_r.force.Z	femur_med_meniscii_r.meniscus_med_r.torque.X	femur_med_meniscii_r.meniscus_med_r.torque.Y	femur_med_meniscii_r.meniscus_med_r.torque.Z	femur_med_tibia_r.tibia_upper_r.force.X	femur_med_tibia_r.tibia_upper_r.force.Y	femur_med_tibia_r.tibia_upper_r.force.Z	femur_med_tibia_r.tibia_upper_r.torque.X	femur_med_tibia_r.tibia_upper_r.torque.Y	femur_med_tibia_r.tibia_upper_r.torque.Z	femur_med_tibia_r.femur_med_r.force.X	femur_med_tibia_r.femur_med_r.force.Y	femur_med_tibia_r.femur_med_r.force.Z	femur_med_tibia_r.femur_med_r.torque.X	femur_med_tibia_r.femur_med_r.torque.Y	femur_med_tibia_r.femur_med_r.torque.Z	femur_lat_tibia_r.tibia_upper_r.force.X	femur_lat_tibia_r.tibia_upper_r.force.Y	femur_lat_tibia_r.tibia_upper_r.force.Z	femur_lat_tibia_r.tibia_upper_r.torque.X	femur_lat_tibia_r.tibia_upper_r.torque.Y	femur_lat_tibia_r.tibia_upper_r.torque.Z	femur_lat_tibia_r.femur_lat_r.force.X	femur_lat_tibia_r.femur_lat_r.force.Y	femur_lat_tibia_r.femur_lat_r.force.Z	femur_lat_tibia_r.femur_lat_r.torque.X	femur_lat_tibia_r.femur_lat_r.torque.Y	femur_lat_tibia_r.femur_lat_r.torque.Z	aACL_R	pACL_R	aPCL_R	pPCL_R	aMCL_R	mMCL_R	pMCL_R	aLCL_R	mLCL_R	pLCL_R	aPCL_L	pPCL_L	aMCL_L	aLCL_L
      0.16700363	     11.31285561	      8.25987731	      8.88279707	      3.81531611	      4.43738969	      4.79465213	      0.00000000	    168.70935047	    132.25311928	    289.55109640	    131.52132471	      8.21969675	      5.92222348	      3.86465579	      3.60115212	      6.06527935	      4.92138466	      3.22020963	    100.91597386	      5.33306418	      8.11276178	      6.09563121	     27.38914472	     18.34898276	      5.24533412	      3.62993207	      6.21462186	     55.98359436	     30.97893804	     33.12415545	     44.62762329	      0.00000000	      0.00000000	      0.00000000	      0.00000000	      0.00000000	      0.00000000	     34.73499172	      2.38676699	      3.00943505	     25.00787258	     43.47822210	     11.12762556	     11.31285561	      8.25987731	      8.88279707	      3.81531611	      4.43738969	      4.79465213	      0.00000000	      6.11693439	     12.07802119	     10.44003868	      2.17703180	      8.21969675	      5.92222348	      3.86465579	      3.60115212	      6.06527935	      5.38246300	      3.22020963	      2.24700411	      5.33306418	      8.11276178	      6.09563121	     27.38914472	     18.34898276	      5.24533412	      3.62993207	      6.21462186	     16.80893094	      0.00000000	      0.00000000	      0.00000000	     21.10689012	      9.96341741	     50.30135301	     50.71783202	      5.39260451	      4.82346478	     13.08821333	      6.99670811	     18.02487787	      2.83711718	      8.72590512	      2.74320518	     35.91158407	     35.91158407	     13.33276567	     13.33276567	     30.70993665	     30.70993665	     91.75154611	    152.62552666	     16.85928159	    -10.45793300	      2.21535595	     35.94084773	    -91.75154611	   -152.62552666	    -16.85928159	      4.17926079	     -2.71373027	      2.74066565	     22.11722349	     17.61772939	      9.86985836	     -3.58087745	     -0.50418531	      8.88183048	    -22.11722349	    -17.61772939	     -9.86985836	     -0.20691965	      0.26180127	      0.03884579	   -813.98729356	   -703.47758990	    227.13003757	    -16.12661496	     18.24543590	     -1.32791015	    813.98729356	    703.47758990	   -227.13003757	    105.02619791	    -14.73501883	    330.79833804	      0.00000000	      0.00000000	      0.00000000	      0.00000000	      0.00000000	      0.00000000	      0.00000000	      0.00000000	      0.00000000	      0.00000000	      0.00000000	      0.00000000	     -5.18313724	      0.00000000	    608.16223588	    392.61001737	      0.00000000	      0.00000000	      0.00000000	      0.00000000	      0.00000000	      0.00000000	      0.00000000	      0.00000000	      0.00000001	      0.00000000
      0.16727138	     11.30019305	      8.25073437	      8.87284659	      3.81126622	      4.43295944	      4.78899207	      0.00000000	    168.69725577	    132.33487690	    289.68666580	    131.49222290	      8.21049344	      5.91599566	      3.88975685	      3.59709313	      6.05792387	      4.91109228	      3.21676707	    100.87983908	      5.32713812	      8.10372644	      6.08873643	     27.37230345	     18.32977825	      5.23964499	      3.62715505	      6.21152050	     56.23719799	     31.05861095	     33.14639598	     44.63205042	      0.00000000	      0.00000000	      0.00000000	      0.00000000	      0.00000000	      0.00000000	     34.77305913	      2.38300953	      3.01562629	     24.77720001	     43.95042789	     11.26366164	     11.30019305	      8.25073437	      8.87284659	      3.81126622	      4.43295944	      4.78899207	      0.00000000	      6.10973167	     12.06389936	     10.42870246	      2.17473172	      8.21049344	      5.91599566	      3.88975685	      3.59709313	      6.05792387	      5.37792879	      3.21676707	      2.24458834	      5.32713812	      8.10372644	      6.08873643	     27.37230345	     18.32977825	      5.23964499	      3.62715505	      6.21152050	     16.78765268	      0.00000000	      0.00000000	      0.00000000	     21.09960557	      9.95906912	     50.24893956	     50.69065848	      5.38635650	      4.81767984	     13.07250543	      6.98782207	     18.00811934	      2.83415851	      8.71534103	      2.74013457	     35.87337897	     35.87337897	     13.31743652	     13.31743652	     30.69604460	     30.69604460	     92.14451629	    152.96157876	     16.93233972	    -10.49801708	      2.22310954	     36.09082238	    -92.14451629	   -152.96157876	    -16.93233972	      4.19169453	     -2.72491435	      2.76086073	     22.15832666	     17.38668163	      9.77348343	     -3.54765435	     -0.50419231	      8.89806047	    -22.15832666	    -17.38668163	     -9.77348343	     -0.20356045	      0.26318871	      0.03538649	   -816.63815296	   -703.19575772	    227.73116560	    -16.11268431	     18.31105390	     -1.28628571	    816.63815296	    703.19575772	   -227.73116560	    105.25693244	    -14.78507721	    331.84291285	      0.00000000	      0.00000000	      0.00000000	      0.00000000	      0.00000000	      0.00000000	      0.00000000	      0.00000000	      0.00000000	      0.00000000	      0.00000000	      0.00000000	     -5.13944226	      0.00000000	    610.92045365	    393.99565186	      0.00000000	      0.00000000	      0.00000000	      0.00000000	      0.00000000	      0.00000000	      0.00000000	      0.00000000	      0.00000001	      0.00000000
      0.16775458	     11.27741840	      8.23431807	      8.85498058	      3.80399424	      4.42500480	      4.77882884	      0.00000000	    168.67322461	    132.49938781	    289.95909750	    131.43941037	      8.19396899	      5.90481283	      3.92845750	      3.58980523	      6.04471695	      4.89216940	      3.21058566	    100.81458093	      5.31649805	      8.08750372	      6.07635713	     27.34206684	     18.29529915	      5.22942986	      3.62216947	      6.20585908	     56.67405672	     31.05645453	     33.13663268	     44.61496213	      0.00000000	      0.00000000	      0.00000000	      0.00000000	      0.00000000	      0.00000000	     34.84025893	      2.37617629	      3.02672522	     20.84864946	     44.16980194	     11.31829898	     11.27741840	      8.23431807	      8.85498058	      3.80399424	      4.42500480	      4.77882884	      0.00000000	      6.09679940	     12.03849666	     10.40834775	      2.17060166	      8.19396899	      5.90481283	      3.92845750	      3.58980523	      6.04471695	      5.36978695	      3.21058566	      2.24025067	      5.31649805	      8.08750372	      6.07635713	     27.34206684	     18.29529915	      5.22942986	      3.62216947	      6.20585908	     16.74943739	      0.00000000	      0.00000000	      0.00000000	     21.08625351	      9.95113374	     50.15444778	     50.64180852	      5.37501992	      4.80715558	     13.04427496	      6.97185477	     17.97796602	      2.82884656	      8.69657546	      2.73470289	     35.80477795	     35.80477795	     13.28991344	     13.28991344	     30.67110344	     30.67110344	     93.90767708	    152.59833011	     17.37337575	    -10.67444364	      2.26537467	     36.80841490	    -93.90767708	   -152.59833011	    -17.37337575	      4.19712290	     -2.78160968	      2.73754065	     22.34065180	     17.19309313	      9.60633074	     -3.48533246	     -0.50654113	      8.96933774	    -22.34065180	    -17.19309313	     -9.60633074	     -0.20211982	      0.26773923	      0.03366593	   -821.89798910	   -701.37602436	    229.06335466	    -16.07432218	     18.43959951	     -1.26724105	    821.89798910	    701.37602436	   -229.06335466	    105.75391199	    -14.88102585	    333.94102419	      0.00000000	      0.00000000	      0.00000000	      0.00000000	      0.00000000	      0.00000000	      0.00000000	      0.00000000	      0.00000000	      0.00000000	      0.00000000	      0.00000000	     -5.03418643	      0.00000000	    615.86089866	    396.46072154	      0.00000000	      0.00000000	      0.00000000	      0.00000000	      0.00000000	      0.00000000	      0.00000000	      0.00000000	      0.00000001	      0.00000000
      0.16783762	     11.27351415	      8.23150738	      8.85192170	      3.80274913	      4.42364285	      4.77708869	      0.00000000	    168.66853952	    132.52969512	    290.00795783	    131.42997314	      8.19113981	      5.90289809	      3.93433897	      3.58855745	      6.04245574	      4.88887196	      3.20952729	    100.80310503	      5.31467636	      8.08472621	      6.07423767	     27.33689019	     18.28939624	      5.22768086	      3.62131595	      6.20487779	     56.75005421	     31.05098138	     33.13453078	     44.61242538	      0.00000000	      0.00000000	      0.00000000	      0.00000000	      0.00000000	      0.00000000	     34.85175129	      2.37498899	      3.02861722	     21.81498494	     44.26599626	     11.33899781	     11.27351415	      8.23150738	      8.85192170	      3.80274913	      4.42364285	      4.77708869	      0.00000000	      6.09458526	     12.03414139	     10.40486270	      2.16989450	      8.19113981	      5.90289809	      3.93433897	      3.58855745	      6.04245574	      5.36839288	      3.20952729	      2.23950798	      5.31467636	      8.08472621	      6.07423767	     27.33689019	     18.28939624	      5.22768086	      3.62131595	      6.20487779	     16.74289315	      0.00000000	      0.00000000	      0.00000000	     21.08393221	      9.94975856	     50.13822040	     50.63343712	      5.37306353	      4.80533577	     13.03943812	      6.96911938	     17.97279526	      2.82793713	      8.69338868	      2.73378343	     35.79303211	     35.79303211	     13.28520120	     13.28520120	     30.66683346	     30.66683346	     94.14295504	    152.56563208	     17.41730588	    -10.69270157	      2.27133959	     36.90365411	    -94.14295504	   -152.56563208	    -17.41730588	      4.19835400	     -2.78928217	      2.73607621	     22.33860378	     17.13500042	      9.57326617	     -3.47340561	     -0.50618582	      8.96824952	    -22.33860378	    -17.13500042	     -9.57326617	     -0.20144868	      0.26790990	      0.03327309	   -822.85621929	   -700.90934781	    228.81187477	    -16.05300812	     18.44653483	     -1.26993932	    822.85621929	    700.90934781	   -228.81187477	    105.63860878	    -14.89262442	    334.32537085	      0.00000000	      0.00000000	      0.00000000	      0.00000000	      0.00000000	      0.00000000	      0.00000000	      0.00000000	      0.00000000	      0.00000000	      0.00000000	      0.00000000	     -5.02945293	      0.00000000	    616.71039048	    396.89396492	      0.00000000	      0.00000000	      0.00000000	      0.00000000	      0.00000000	      0.00000000	      0.00000000	      0.00000000	      0.00000001	      0.00000000
